<?xml version="1.0" encoding="utf-8" standalone="no"?>
<!DOCTYPE svg PUBLIC "-//W3C//DTD SVG 1.1//EN"
  "http://www.w3.org/Graphics/SVG/1.1/DTD/svg11.dtd">
<svg xmlns:xlink="http://www.w3.org/1999/xlink" width="720pt" height="432pt" viewBox="0 0 720 432" xmlns="http://www.w3.org/2000/svg" version="1.1">
 <metadata>
  <rdf:RDF xmlns:dc="http://purl.org/dc/elements/1.1/" xmlns:cc="http://creativecommons.org/ns#" xmlns:rdf="http://www.w3.org/1999/02/22-rdf-syntax-ns#">
   <cc:Work>
    <dc:type rdf:resource="http://purl.org/dc/dcmitype/StillImage"/>
    <dc:date>2024-11-21T17:19:01.310894</dc:date>
    <dc:format>image/svg+xml</dc:format>
    <dc:creator>
     <cc:Agent>
      <dc:title>Matplotlib v3.9.2, https://matplotlib.org/</dc:title>
     </cc:Agent>
    </dc:creator>
   </cc:Work>
  </rdf:RDF>
 </metadata>
 <defs>
  <style type="text/css">*{stroke-linejoin: round; stroke-linecap: butt}</style>
 </defs>
 <g id="figure_1">
  <g id="patch_1">
   <path d="M 0 432 
L 720 432 
L 720 0 
L 0 0 
z
" style="fill: #ffffff"/>
  </g>
  <g id="axes_1">
   <g id="patch_2">
    <path d="M 90 384.48 
L 648 384.48 
L 648 51.84 
L 90 51.84 
z
" style="fill: #ffffff"/>
   </g>
   <g id="PolyCollection_1">
    <defs>
     <path id="m8319b2e333" d="M 115.363636 -182.939815 
L 115.363636 -168.380578 
L 121.951594 -62.64 
L 128.539551 -63.905561 
L 135.127509 -117.88053 
L 141.715466 -164.38825 
L 148.303424 -181.820362 
L 154.891381 -220.575781 
L 161.479339 -252.227754 
L 168.067296 -249.229384 
L 174.655254 -249.032147 
L 181.243211 -285.552858 
L 187.831169 -265.077421 
L 194.419126 -274.201609 
L 201.007084 -282.438898 
L 207.595041 -282.293837 
L 214.182999 -288.248345 
L 220.770956 -283.589482 
L 227.358914 -279.759154 
L 233.946871 -277.638934 
L 240.534829 -308.029687 
L 247.122786 -302.988577 
L 253.710744 -292.774565 
L 260.298701 -313.221307 
L 266.886659 -305.988024 
L 273.474616 -298.112528 
L 280.062574 -299.532782 
L 286.650531 -304.5582 
L 293.238489 -303.291215 
L 299.826446 -300.079825 
L 306.414404 -299.471342 
L 313.002361 -295.791856 
L 319.590319 -309.012974 
L 326.178276 -311.489747 
L 332.766234 -305.550484 
L 339.354191 -302.146069 
L 345.942149 -302.388229 
L 352.530106 -298.512965 
L 359.118064 -304.248932 
L 365.706021 -301.616599 
L 372.293979 -308.08781 
L 378.881936 -309.827075 
L 385.469894 -304.413063 
L 392.057851 -307.291189 
L 398.645809 -307.16916 
L 405.233766 -298.302207 
L 411.821724 -309.172463 
L 418.409681 -303.561955 
L 424.997639 -313.182065 
L 431.585596 -308.437754 
L 438.173554 -315.167241 
L 444.761511 -314.466748 
L 451.349469 -319.585014 
L 457.937426 -312.061576 
L 464.525384 -329.429455 
L 471.113341 -317.838217 
L 477.701299 -325.585698 
L 484.289256 -331.1892 
L 490.877214 -311.639111 
L 497.465171 -314.765421 
L 504.053129 -311.826119 
L 510.641086 -311.838467 
L 517.229044 -333.001101 
L 523.817001 -311.376588 
L 530.404959 -325.073547 
L 536.992916 -309.659627 
L 543.580874 -308.667219 
L 550.168831 -316.023134 
L 556.756789 -323.694522 
L 563.344746 -316.831408 
L 569.932704 -320.312919 
L 576.520661 -308.235336 
L 583.108619 -318.311002 
L 589.696576 -325.227738 
L 596.284534 -327.372994 
L 602.872491 -324.952556 
L 609.460449 -308.684254 
L 616.048406 -300.922203 
L 622.636364 -293.325508 
L 622.636364 -322.823464 
L 622.636364 -322.823464 
L 616.048406 -329.260703 
L 609.460449 -325.956489 
L 602.872491 -345.350889 
L 596.284534 -360.761801 
L 589.696576 -353.000752 
L 583.108619 -346.048659 
L 576.520661 -340.274235 
L 569.932704 -344.046742 
L 563.344746 -355.453298 
L 556.756789 -342.646401 
L 550.168831 -348.336527 
L 543.580874 -345.786136 
L 536.992916 -342.812467 
L 530.404959 -345.229898 
L 523.817001 -343.076767 
L 517.229044 -365.04 
L 510.641086 -348.558672 
L 504.053129 -338.664714 
L 497.465171 -355.538024 
L 490.877214 -348.758028 
L 484.289256 -351.001812 
L 477.701299 -352.642792 
L 471.113341 -350.483967 
L 464.525384 -364.649124 
L 457.937426 -336.447996 
L 451.349469 -348.73717 
L 444.761511 -355.836696 
L 438.173554 -335.323592 
L 431.585596 -338.090556 
L 424.997639 -341.27129 
L 418.409681 -339.003833 
L 411.821724 -331.412064 
L 405.233766 -318.507186 
L 398.645809 -329.452844 
L 392.057851 -323.387031 
L 385.469894 -338.152725 
L 378.881936 -344.62628 
L 372.293979 -328.534195 
L 365.706021 -335.005406 
L 359.118064 -332.373072 
L 352.530106 -332.165256 
L 345.942149 -336.215037 
L 339.354191 -330.513413 
L 332.766234 -342.959088 
L 326.178276 -333.057302 
L 319.590319 -341.477859 
L 313.002361 -326.96132 
L 306.414404 -327.244356 
L 299.826446 -338.52344 
L 293.238489 -343.237096 
L 286.650531 -334.045065 
L 280.062574 -333.1267 
L 273.474616 -322.659387 
L 266.886659 -334.596503 
L 260.298701 -331.325742 
L 253.710744 -326.016089 
L 247.122786 -325.708383 
L 240.534829 -338.498624 
L 233.946871 -321.339107 
L 227.358914 -315.256366 
L 220.770956 -313.407298 
L 214.182999 -328.561047 
L 207.595041 -304.796638 
L 201.007084 -322.482927 
L 194.419126 -320.81391 
L 187.831169 -308.144225 
L 181.243211 -307.481401 
L 174.655254 -286.545537 
L 168.067296 -286.3483 
L 161.479339 -277.406146 
L 154.891381 -259.52659 
L 148.303424 -226.956605 
L 141.715466 -194.857187 
L 135.127509 -156.170677 
L 128.539551 -103.157541 
L 121.951594 -118.291931 
L 115.363636 -182.939815 
z
" style="stroke: #0000ff; stroke-opacity: 0.2"/>
    </defs>
    <g clip-path="url(#pd4436f37b3)">
     <use xlink:href="#m8319b2e333" x="0" y="432" style="fill: #0000ff; fill-opacity: 0.2; stroke: #0000ff; stroke-opacity: 0.2"/>
    </g>
   </g>
   <g id="matplotlib.axis_1">
    <g id="xtick_1">
     <g id="line2d_1">
      <path d="M 108.775679 384.48 
L 108.775679 51.84 
" clip-path="url(#pd4436f37b3)" style="fill: none; stroke: #b0b0b0; stroke-width: 0.8; stroke-linecap: square"/>
     </g>
     <g id="line2d_2">
      <defs>
       <path id="ma4ab3bf7a3" d="M 0 0 
L 0 3.5 
" style="stroke: #000000; stroke-width: 0.8"/>
      </defs>
      <g>
       <use xlink:href="#ma4ab3bf7a3" x="108.775679" y="384.48" style="stroke: #000000; stroke-width: 0.8"/>
      </g>
     </g>
     <g id="text_1">
      <!-- 0 -->
      <g transform="translate(105.594429 399.078438) scale(0.1 -0.1)">
       <defs>
        <path id="DejaVuSans-30" d="M 2034 4250 
Q 1547 4250 1301 3770 
Q 1056 3291 1056 2328 
Q 1056 1369 1301 889 
Q 1547 409 2034 409 
Q 2525 409 2770 889 
Q 3016 1369 3016 2328 
Q 3016 3291 2770 3770 
Q 2525 4250 2034 4250 
z
M 2034 4750 
Q 2819 4750 3233 4129 
Q 3647 3509 3647 2328 
Q 3647 1150 3233 529 
Q 2819 -91 2034 -91 
Q 1250 -91 836 529 
Q 422 1150 422 2328 
Q 422 3509 836 4129 
Q 1250 4750 2034 4750 
z
" transform="scale(0.015625)"/>
       </defs>
       <use xlink:href="#DejaVuSans-30"/>
      </g>
     </g>
    </g>
    <g id="xtick_2">
     <g id="line2d_3">
      <path d="M 174.655254 384.48 
L 174.655254 51.84 
" clip-path="url(#pd4436f37b3)" style="fill: none; stroke: #b0b0b0; stroke-width: 0.8; stroke-linecap: square"/>
     </g>
     <g id="line2d_4">
      <g>
       <use xlink:href="#ma4ab3bf7a3" x="174.655254" y="384.48" style="stroke: #000000; stroke-width: 0.8"/>
      </g>
     </g>
     <g id="text_2">
      <!-- 10 -->
      <g transform="translate(168.292754 399.078438) scale(0.1 -0.1)">
       <defs>
        <path id="DejaVuSans-31" d="M 794 531 
L 1825 531 
L 1825 4091 
L 703 3866 
L 703 4441 
L 1819 4666 
L 2450 4666 
L 2450 531 
L 3481 531 
L 3481 0 
L 794 0 
L 794 531 
z
" transform="scale(0.015625)"/>
       </defs>
       <use xlink:href="#DejaVuSans-31"/>
       <use xlink:href="#DejaVuSans-30" x="63.623047"/>
      </g>
     </g>
    </g>
    <g id="xtick_3">
     <g id="line2d_5">
      <path d="M 240.534829 384.48 
L 240.534829 51.84 
" clip-path="url(#pd4436f37b3)" style="fill: none; stroke: #b0b0b0; stroke-width: 0.8; stroke-linecap: square"/>
     </g>
     <g id="line2d_6">
      <g>
       <use xlink:href="#ma4ab3bf7a3" x="240.534829" y="384.48" style="stroke: #000000; stroke-width: 0.8"/>
      </g>
     </g>
     <g id="text_3">
      <!-- 20 -->
      <g transform="translate(234.172329 399.078438) scale(0.1 -0.1)">
       <defs>
        <path id="DejaVuSans-32" d="M 1228 531 
L 3431 531 
L 3431 0 
L 469 0 
L 469 531 
Q 828 903 1448 1529 
Q 2069 2156 2228 2338 
Q 2531 2678 2651 2914 
Q 2772 3150 2772 3378 
Q 2772 3750 2511 3984 
Q 2250 4219 1831 4219 
Q 1534 4219 1204 4116 
Q 875 4013 500 3803 
L 500 4441 
Q 881 4594 1212 4672 
Q 1544 4750 1819 4750 
Q 2544 4750 2975 4387 
Q 3406 4025 3406 3419 
Q 3406 3131 3298 2873 
Q 3191 2616 2906 2266 
Q 2828 2175 2409 1742 
Q 1991 1309 1228 531 
z
" transform="scale(0.015625)"/>
       </defs>
       <use xlink:href="#DejaVuSans-32"/>
       <use xlink:href="#DejaVuSans-30" x="63.623047"/>
      </g>
     </g>
    </g>
    <g id="xtick_4">
     <g id="line2d_7">
      <path d="M 306.414404 384.48 
L 306.414404 51.84 
" clip-path="url(#pd4436f37b3)" style="fill: none; stroke: #b0b0b0; stroke-width: 0.8; stroke-linecap: square"/>
     </g>
     <g id="line2d_8">
      <g>
       <use xlink:href="#ma4ab3bf7a3" x="306.414404" y="384.48" style="stroke: #000000; stroke-width: 0.8"/>
      </g>
     </g>
     <g id="text_4">
      <!-- 30 -->
      <g transform="translate(300.051904 399.078438) scale(0.1 -0.1)">
       <defs>
        <path id="DejaVuSans-33" d="M 2597 2516 
Q 3050 2419 3304 2112 
Q 3559 1806 3559 1356 
Q 3559 666 3084 287 
Q 2609 -91 1734 -91 
Q 1441 -91 1130 -33 
Q 819 25 488 141 
L 488 750 
Q 750 597 1062 519 
Q 1375 441 1716 441 
Q 2309 441 2620 675 
Q 2931 909 2931 1356 
Q 2931 1769 2642 2001 
Q 2353 2234 1838 2234 
L 1294 2234 
L 1294 2753 
L 1863 2753 
Q 2328 2753 2575 2939 
Q 2822 3125 2822 3475 
Q 2822 3834 2567 4026 
Q 2313 4219 1838 4219 
Q 1578 4219 1281 4162 
Q 984 4106 628 3988 
L 628 4550 
Q 988 4650 1302 4700 
Q 1616 4750 1894 4750 
Q 2613 4750 3031 4423 
Q 3450 4097 3450 3541 
Q 3450 3153 3228 2886 
Q 3006 2619 2597 2516 
z
" transform="scale(0.015625)"/>
       </defs>
       <use xlink:href="#DejaVuSans-33"/>
       <use xlink:href="#DejaVuSans-30" x="63.623047"/>
      </g>
     </g>
    </g>
    <g id="xtick_5">
     <g id="line2d_9">
      <path d="M 372.293979 384.48 
L 372.293979 51.84 
" clip-path="url(#pd4436f37b3)" style="fill: none; stroke: #b0b0b0; stroke-width: 0.8; stroke-linecap: square"/>
     </g>
     <g id="line2d_10">
      <g>
       <use xlink:href="#ma4ab3bf7a3" x="372.293979" y="384.48" style="stroke: #000000; stroke-width: 0.8"/>
      </g>
     </g>
     <g id="text_5">
      <!-- 40 -->
      <g transform="translate(365.931479 399.078438) scale(0.1 -0.1)">
       <defs>
        <path id="DejaVuSans-34" d="M 2419 4116 
L 825 1625 
L 2419 1625 
L 2419 4116 
z
M 2253 4666 
L 3047 4666 
L 3047 1625 
L 3713 1625 
L 3713 1100 
L 3047 1100 
L 3047 0 
L 2419 0 
L 2419 1100 
L 313 1100 
L 313 1709 
L 2253 4666 
z
" transform="scale(0.015625)"/>
       </defs>
       <use xlink:href="#DejaVuSans-34"/>
       <use xlink:href="#DejaVuSans-30" x="63.623047"/>
      </g>
     </g>
    </g>
    <g id="xtick_6">
     <g id="line2d_11">
      <path d="M 438.173554 384.48 
L 438.173554 51.84 
" clip-path="url(#pd4436f37b3)" style="fill: none; stroke: #b0b0b0; stroke-width: 0.8; stroke-linecap: square"/>
     </g>
     <g id="line2d_12">
      <g>
       <use xlink:href="#ma4ab3bf7a3" x="438.173554" y="384.48" style="stroke: #000000; stroke-width: 0.8"/>
      </g>
     </g>
     <g id="text_6">
      <!-- 50 -->
      <g transform="translate(431.811054 399.078438) scale(0.1 -0.1)">
       <defs>
        <path id="DejaVuSans-35" d="M 691 4666 
L 3169 4666 
L 3169 4134 
L 1269 4134 
L 1269 2991 
Q 1406 3038 1543 3061 
Q 1681 3084 1819 3084 
Q 2600 3084 3056 2656 
Q 3513 2228 3513 1497 
Q 3513 744 3044 326 
Q 2575 -91 1722 -91 
Q 1428 -91 1123 -41 
Q 819 9 494 109 
L 494 744 
Q 775 591 1075 516 
Q 1375 441 1709 441 
Q 2250 441 2565 725 
Q 2881 1009 2881 1497 
Q 2881 1984 2565 2268 
Q 2250 2553 1709 2553 
Q 1456 2553 1204 2497 
Q 953 2441 691 2322 
L 691 4666 
z
" transform="scale(0.015625)"/>
       </defs>
       <use xlink:href="#DejaVuSans-35"/>
       <use xlink:href="#DejaVuSans-30" x="63.623047"/>
      </g>
     </g>
    </g>
    <g id="xtick_7">
     <g id="line2d_13">
      <path d="M 504.053129 384.48 
L 504.053129 51.84 
" clip-path="url(#pd4436f37b3)" style="fill: none; stroke: #b0b0b0; stroke-width: 0.8; stroke-linecap: square"/>
     </g>
     <g id="line2d_14">
      <g>
       <use xlink:href="#ma4ab3bf7a3" x="504.053129" y="384.48" style="stroke: #000000; stroke-width: 0.8"/>
      </g>
     </g>
     <g id="text_7">
      <!-- 60 -->
      <g transform="translate(497.690629 399.078438) scale(0.1 -0.1)">
       <defs>
        <path id="DejaVuSans-36" d="M 2113 2584 
Q 1688 2584 1439 2293 
Q 1191 2003 1191 1497 
Q 1191 994 1439 701 
Q 1688 409 2113 409 
Q 2538 409 2786 701 
Q 3034 994 3034 1497 
Q 3034 2003 2786 2293 
Q 2538 2584 2113 2584 
z
M 3366 4563 
L 3366 3988 
Q 3128 4100 2886 4159 
Q 2644 4219 2406 4219 
Q 1781 4219 1451 3797 
Q 1122 3375 1075 2522 
Q 1259 2794 1537 2939 
Q 1816 3084 2150 3084 
Q 2853 3084 3261 2657 
Q 3669 2231 3669 1497 
Q 3669 778 3244 343 
Q 2819 -91 2113 -91 
Q 1303 -91 875 529 
Q 447 1150 447 2328 
Q 447 3434 972 4092 
Q 1497 4750 2381 4750 
Q 2619 4750 2861 4703 
Q 3103 4656 3366 4563 
z
" transform="scale(0.015625)"/>
       </defs>
       <use xlink:href="#DejaVuSans-36"/>
       <use xlink:href="#DejaVuSans-30" x="63.623047"/>
      </g>
     </g>
    </g>
    <g id="xtick_8">
     <g id="line2d_15">
      <path d="M 569.932704 384.48 
L 569.932704 51.84 
" clip-path="url(#pd4436f37b3)" style="fill: none; stroke: #b0b0b0; stroke-width: 0.8; stroke-linecap: square"/>
     </g>
     <g id="line2d_16">
      <g>
       <use xlink:href="#ma4ab3bf7a3" x="569.932704" y="384.48" style="stroke: #000000; stroke-width: 0.8"/>
      </g>
     </g>
     <g id="text_8">
      <!-- 70 -->
      <g transform="translate(563.570204 399.078438) scale(0.1 -0.1)">
       <defs>
        <path id="DejaVuSans-37" d="M 525 4666 
L 3525 4666 
L 3525 4397 
L 1831 0 
L 1172 0 
L 2766 4134 
L 525 4134 
L 525 4666 
z
" transform="scale(0.015625)"/>
       </defs>
       <use xlink:href="#DejaVuSans-37"/>
       <use xlink:href="#DejaVuSans-30" x="63.623047"/>
      </g>
     </g>
    </g>
    <g id="xtick_9">
     <g id="line2d_17">
      <path d="M 635.812279 384.48 
L 635.812279 51.84 
" clip-path="url(#pd4436f37b3)" style="fill: none; stroke: #b0b0b0; stroke-width: 0.8; stroke-linecap: square"/>
     </g>
     <g id="line2d_18">
      <g>
       <use xlink:href="#ma4ab3bf7a3" x="635.812279" y="384.48" style="stroke: #000000; stroke-width: 0.8"/>
      </g>
     </g>
     <g id="text_9">
      <!-- 80 -->
      <g transform="translate(629.449779 399.078438) scale(0.1 -0.1)">
       <defs>
        <path id="DejaVuSans-38" d="M 2034 2216 
Q 1584 2216 1326 1975 
Q 1069 1734 1069 1313 
Q 1069 891 1326 650 
Q 1584 409 2034 409 
Q 2484 409 2743 651 
Q 3003 894 3003 1313 
Q 3003 1734 2745 1975 
Q 2488 2216 2034 2216 
z
M 1403 2484 
Q 997 2584 770 2862 
Q 544 3141 544 3541 
Q 544 4100 942 4425 
Q 1341 4750 2034 4750 
Q 2731 4750 3128 4425 
Q 3525 4100 3525 3541 
Q 3525 3141 3298 2862 
Q 3072 2584 2669 2484 
Q 3125 2378 3379 2068 
Q 3634 1759 3634 1313 
Q 3634 634 3220 271 
Q 2806 -91 2034 -91 
Q 1263 -91 848 271 
Q 434 634 434 1313 
Q 434 1759 690 2068 
Q 947 2378 1403 2484 
z
M 1172 3481 
Q 1172 3119 1398 2916 
Q 1625 2713 2034 2713 
Q 2441 2713 2670 2916 
Q 2900 3119 2900 3481 
Q 2900 3844 2670 4047 
Q 2441 4250 2034 4250 
Q 1625 4250 1398 4047 
Q 1172 3844 1172 3481 
z
" transform="scale(0.015625)"/>
       </defs>
       <use xlink:href="#DejaVuSans-38"/>
       <use xlink:href="#DejaVuSans-30" x="63.623047"/>
      </g>
     </g>
    </g>
    <g id="text_10">
     <!-- Number of Features -->
     <g transform="translate(319.421875 412.756563) scale(0.1 -0.1)">
      <defs>
       <path id="DejaVuSans-4e" d="M 628 4666 
L 1478 4666 
L 3547 763 
L 3547 4666 
L 4159 4666 
L 4159 0 
L 3309 0 
L 1241 3903 
L 1241 0 
L 628 0 
L 628 4666 
z
" transform="scale(0.015625)"/>
       <path id="DejaVuSans-75" d="M 544 1381 
L 544 3500 
L 1119 3500 
L 1119 1403 
Q 1119 906 1312 657 
Q 1506 409 1894 409 
Q 2359 409 2629 706 
Q 2900 1003 2900 1516 
L 2900 3500 
L 3475 3500 
L 3475 0 
L 2900 0 
L 2900 538 
Q 2691 219 2414 64 
Q 2138 -91 1772 -91 
Q 1169 -91 856 284 
Q 544 659 544 1381 
z
M 1991 3584 
L 1991 3584 
z
" transform="scale(0.015625)"/>
       <path id="DejaVuSans-6d" d="M 3328 2828 
Q 3544 3216 3844 3400 
Q 4144 3584 4550 3584 
Q 5097 3584 5394 3201 
Q 5691 2819 5691 2113 
L 5691 0 
L 5113 0 
L 5113 2094 
Q 5113 2597 4934 2840 
Q 4756 3084 4391 3084 
Q 3944 3084 3684 2787 
Q 3425 2491 3425 1978 
L 3425 0 
L 2847 0 
L 2847 2094 
Q 2847 2600 2669 2842 
Q 2491 3084 2119 3084 
Q 1678 3084 1418 2786 
Q 1159 2488 1159 1978 
L 1159 0 
L 581 0 
L 581 3500 
L 1159 3500 
L 1159 2956 
Q 1356 3278 1631 3431 
Q 1906 3584 2284 3584 
Q 2666 3584 2933 3390 
Q 3200 3197 3328 2828 
z
" transform="scale(0.015625)"/>
       <path id="DejaVuSans-62" d="M 3116 1747 
Q 3116 2381 2855 2742 
Q 2594 3103 2138 3103 
Q 1681 3103 1420 2742 
Q 1159 2381 1159 1747 
Q 1159 1113 1420 752 
Q 1681 391 2138 391 
Q 2594 391 2855 752 
Q 3116 1113 3116 1747 
z
M 1159 2969 
Q 1341 3281 1617 3432 
Q 1894 3584 2278 3584 
Q 2916 3584 3314 3078 
Q 3713 2572 3713 1747 
Q 3713 922 3314 415 
Q 2916 -91 2278 -91 
Q 1894 -91 1617 61 
Q 1341 213 1159 525 
L 1159 0 
L 581 0 
L 581 4863 
L 1159 4863 
L 1159 2969 
z
" transform="scale(0.015625)"/>
       <path id="DejaVuSans-65" d="M 3597 1894 
L 3597 1613 
L 953 1613 
Q 991 1019 1311 708 
Q 1631 397 2203 397 
Q 2534 397 2845 478 
Q 3156 559 3463 722 
L 3463 178 
Q 3153 47 2828 -22 
Q 2503 -91 2169 -91 
Q 1331 -91 842 396 
Q 353 884 353 1716 
Q 353 2575 817 3079 
Q 1281 3584 2069 3584 
Q 2775 3584 3186 3129 
Q 3597 2675 3597 1894 
z
M 3022 2063 
Q 3016 2534 2758 2815 
Q 2500 3097 2075 3097 
Q 1594 3097 1305 2825 
Q 1016 2553 972 2059 
L 3022 2063 
z
" transform="scale(0.015625)"/>
       <path id="DejaVuSans-72" d="M 2631 2963 
Q 2534 3019 2420 3045 
Q 2306 3072 2169 3072 
Q 1681 3072 1420 2755 
Q 1159 2438 1159 1844 
L 1159 0 
L 581 0 
L 581 3500 
L 1159 3500 
L 1159 2956 
Q 1341 3275 1631 3429 
Q 1922 3584 2338 3584 
Q 2397 3584 2469 3576 
Q 2541 3569 2628 3553 
L 2631 2963 
z
" transform="scale(0.015625)"/>
       <path id="DejaVuSans-20" transform="scale(0.015625)"/>
       <path id="DejaVuSans-6f" d="M 1959 3097 
Q 1497 3097 1228 2736 
Q 959 2375 959 1747 
Q 959 1119 1226 758 
Q 1494 397 1959 397 
Q 2419 397 2687 759 
Q 2956 1122 2956 1747 
Q 2956 2369 2687 2733 
Q 2419 3097 1959 3097 
z
M 1959 3584 
Q 2709 3584 3137 3096 
Q 3566 2609 3566 1747 
Q 3566 888 3137 398 
Q 2709 -91 1959 -91 
Q 1206 -91 779 398 
Q 353 888 353 1747 
Q 353 2609 779 3096 
Q 1206 3584 1959 3584 
z
" transform="scale(0.015625)"/>
       <path id="DejaVuSans-66" d="M 2375 4863 
L 2375 4384 
L 1825 4384 
Q 1516 4384 1395 4259 
Q 1275 4134 1275 3809 
L 1275 3500 
L 2222 3500 
L 2222 3053 
L 1275 3053 
L 1275 0 
L 697 0 
L 697 3053 
L 147 3053 
L 147 3500 
L 697 3500 
L 697 3744 
Q 697 4328 969 4595 
Q 1241 4863 1831 4863 
L 2375 4863 
z
" transform="scale(0.015625)"/>
       <path id="DejaVuSans-46" d="M 628 4666 
L 3309 4666 
L 3309 4134 
L 1259 4134 
L 1259 2759 
L 3109 2759 
L 3109 2228 
L 1259 2228 
L 1259 0 
L 628 0 
L 628 4666 
z
" transform="scale(0.015625)"/>
       <path id="DejaVuSans-61" d="M 2194 1759 
Q 1497 1759 1228 1600 
Q 959 1441 959 1056 
Q 959 750 1161 570 
Q 1363 391 1709 391 
Q 2188 391 2477 730 
Q 2766 1069 2766 1631 
L 2766 1759 
L 2194 1759 
z
M 3341 1997 
L 3341 0 
L 2766 0 
L 2766 531 
Q 2569 213 2275 61 
Q 1981 -91 1556 -91 
Q 1019 -91 701 211 
Q 384 513 384 1019 
Q 384 1609 779 1909 
Q 1175 2209 1959 2209 
L 2766 2209 
L 2766 2266 
Q 2766 2663 2505 2880 
Q 2244 3097 1772 3097 
Q 1472 3097 1187 3025 
Q 903 2953 641 2809 
L 641 3341 
Q 956 3463 1253 3523 
Q 1550 3584 1831 3584 
Q 2591 3584 2966 3190 
Q 3341 2797 3341 1997 
z
" transform="scale(0.015625)"/>
       <path id="DejaVuSans-74" d="M 1172 4494 
L 1172 3500 
L 2356 3500 
L 2356 3053 
L 1172 3053 
L 1172 1153 
Q 1172 725 1289 603 
Q 1406 481 1766 481 
L 2356 481 
L 2356 0 
L 1766 0 
Q 1100 0 847 248 
Q 594 497 594 1153 
L 594 3053 
L 172 3053 
L 172 3500 
L 594 3500 
L 594 4494 
L 1172 4494 
z
" transform="scale(0.015625)"/>
       <path id="DejaVuSans-73" d="M 2834 3397 
L 2834 2853 
Q 2591 2978 2328 3040 
Q 2066 3103 1784 3103 
Q 1356 3103 1142 2972 
Q 928 2841 928 2578 
Q 928 2378 1081 2264 
Q 1234 2150 1697 2047 
L 1894 2003 
Q 2506 1872 2764 1633 
Q 3022 1394 3022 966 
Q 3022 478 2636 193 
Q 2250 -91 1575 -91 
Q 1294 -91 989 -36 
Q 684 19 347 128 
L 347 722 
Q 666 556 975 473 
Q 1284 391 1588 391 
Q 1994 391 2212 530 
Q 2431 669 2431 922 
Q 2431 1156 2273 1281 
Q 2116 1406 1581 1522 
L 1381 1569 
Q 847 1681 609 1914 
Q 372 2147 372 2553 
Q 372 3047 722 3315 
Q 1072 3584 1716 3584 
Q 2034 3584 2315 3537 
Q 2597 3491 2834 3397 
z
" transform="scale(0.015625)"/>
      </defs>
      <use xlink:href="#DejaVuSans-4e"/>
      <use xlink:href="#DejaVuSans-75" x="74.804688"/>
      <use xlink:href="#DejaVuSans-6d" x="138.183594"/>
      <use xlink:href="#DejaVuSans-62" x="235.595703"/>
      <use xlink:href="#DejaVuSans-65" x="299.072266"/>
      <use xlink:href="#DejaVuSans-72" x="360.595703"/>
      <use xlink:href="#DejaVuSans-20" x="401.708984"/>
      <use xlink:href="#DejaVuSans-6f" x="433.496094"/>
      <use xlink:href="#DejaVuSans-66" x="494.677734"/>
      <use xlink:href="#DejaVuSans-20" x="529.882812"/>
      <use xlink:href="#DejaVuSans-46" x="561.669922"/>
      <use xlink:href="#DejaVuSans-65" x="613.689453"/>
      <use xlink:href="#DejaVuSans-61" x="675.212891"/>
      <use xlink:href="#DejaVuSans-74" x="736.492188"/>
      <use xlink:href="#DejaVuSans-75" x="775.701172"/>
      <use xlink:href="#DejaVuSans-72" x="839.080078"/>
      <use xlink:href="#DejaVuSans-65" x="877.943359"/>
      <use xlink:href="#DejaVuSans-73" x="939.466797"/>
     </g>
    </g>
   </g>
   <g id="matplotlib.axis_2">
    <g id="ytick_1">
     <g id="line2d_19">
      <path d="M 90 373.729529 
L 648 373.729529 
" clip-path="url(#pd4436f37b3)" style="fill: none; stroke: #b0b0b0; stroke-width: 0.8; stroke-linecap: square"/>
     </g>
     <g id="line2d_20">
      <defs>
       <path id="mf6637f1c5e" d="M 0 0 
L -3.5 0 
" style="stroke: #000000; stroke-width: 0.8"/>
      </defs>
      <g>
       <use xlink:href="#mf6637f1c5e" x="90" y="373.729529" style="stroke: #000000; stroke-width: 0.8"/>
      </g>
     </g>
     <g id="text_11">
      <!-- 0.700 -->
      <g transform="translate(54.371875 377.528748) scale(0.1 -0.1)">
       <defs>
        <path id="DejaVuSans-2e" d="M 684 794 
L 1344 794 
L 1344 0 
L 684 0 
L 684 794 
z
" transform="scale(0.015625)"/>
       </defs>
       <use xlink:href="#DejaVuSans-30"/>
       <use xlink:href="#DejaVuSans-2e" x="63.623047"/>
       <use xlink:href="#DejaVuSans-37" x="95.410156"/>
       <use xlink:href="#DejaVuSans-30" x="159.033203"/>
       <use xlink:href="#DejaVuSans-30" x="222.65625"/>
      </g>
     </g>
    </g>
    <g id="ytick_2">
     <g id="line2d_21">
      <path d="M 90 330.760927 
L 648 330.760927 
" clip-path="url(#pd4436f37b3)" style="fill: none; stroke: #b0b0b0; stroke-width: 0.8; stroke-linecap: square"/>
     </g>
     <g id="line2d_22">
      <g>
       <use xlink:href="#mf6637f1c5e" x="90" y="330.760927" style="stroke: #000000; stroke-width: 0.8"/>
      </g>
     </g>
     <g id="text_12">
      <!-- 0.725 -->
      <g transform="translate(54.371875 334.560146) scale(0.1 -0.1)">
       <use xlink:href="#DejaVuSans-30"/>
       <use xlink:href="#DejaVuSans-2e" x="63.623047"/>
       <use xlink:href="#DejaVuSans-37" x="95.410156"/>
       <use xlink:href="#DejaVuSans-32" x="159.033203"/>
       <use xlink:href="#DejaVuSans-35" x="222.65625"/>
      </g>
     </g>
    </g>
    <g id="ytick_3">
     <g id="line2d_23">
      <path d="M 90 287.792325 
L 648 287.792325 
" clip-path="url(#pd4436f37b3)" style="fill: none; stroke: #b0b0b0; stroke-width: 0.8; stroke-linecap: square"/>
     </g>
     <g id="line2d_24">
      <g>
       <use xlink:href="#mf6637f1c5e" x="90" y="287.792325" style="stroke: #000000; stroke-width: 0.8"/>
      </g>
     </g>
     <g id="text_13">
      <!-- 0.750 -->
      <g transform="translate(54.371875 291.591544) scale(0.1 -0.1)">
       <use xlink:href="#DejaVuSans-30"/>
       <use xlink:href="#DejaVuSans-2e" x="63.623047"/>
       <use xlink:href="#DejaVuSans-37" x="95.410156"/>
       <use xlink:href="#DejaVuSans-35" x="159.033203"/>
       <use xlink:href="#DejaVuSans-30" x="222.65625"/>
      </g>
     </g>
    </g>
    <g id="ytick_4">
     <g id="line2d_25">
      <path d="M 90 244.823723 
L 648 244.823723 
" clip-path="url(#pd4436f37b3)" style="fill: none; stroke: #b0b0b0; stroke-width: 0.8; stroke-linecap: square"/>
     </g>
     <g id="line2d_26">
      <g>
       <use xlink:href="#mf6637f1c5e" x="90" y="244.823723" style="stroke: #000000; stroke-width: 0.8"/>
      </g>
     </g>
     <g id="text_14">
      <!-- 0.775 -->
      <g transform="translate(54.371875 248.622942) scale(0.1 -0.1)">
       <use xlink:href="#DejaVuSans-30"/>
       <use xlink:href="#DejaVuSans-2e" x="63.623047"/>
       <use xlink:href="#DejaVuSans-37" x="95.410156"/>
       <use xlink:href="#DejaVuSans-37" x="159.033203"/>
       <use xlink:href="#DejaVuSans-35" x="222.65625"/>
      </g>
     </g>
    </g>
    <g id="ytick_5">
     <g id="line2d_27">
      <path d="M 90 201.855121 
L 648 201.855121 
" clip-path="url(#pd4436f37b3)" style="fill: none; stroke: #b0b0b0; stroke-width: 0.8; stroke-linecap: square"/>
     </g>
     <g id="line2d_28">
      <g>
       <use xlink:href="#mf6637f1c5e" x="90" y="201.855121" style="stroke: #000000; stroke-width: 0.8"/>
      </g>
     </g>
     <g id="text_15">
      <!-- 0.800 -->
      <g transform="translate(54.371875 205.65434) scale(0.1 -0.1)">
       <use xlink:href="#DejaVuSans-30"/>
       <use xlink:href="#DejaVuSans-2e" x="63.623047"/>
       <use xlink:href="#DejaVuSans-38" x="95.410156"/>
       <use xlink:href="#DejaVuSans-30" x="159.033203"/>
       <use xlink:href="#DejaVuSans-30" x="222.65625"/>
      </g>
     </g>
    </g>
    <g id="ytick_6">
     <g id="line2d_29">
      <path d="M 90 158.886519 
L 648 158.886519 
" clip-path="url(#pd4436f37b3)" style="fill: none; stroke: #b0b0b0; stroke-width: 0.8; stroke-linecap: square"/>
     </g>
     <g id="line2d_30">
      <g>
       <use xlink:href="#mf6637f1c5e" x="90" y="158.886519" style="stroke: #000000; stroke-width: 0.8"/>
      </g>
     </g>
     <g id="text_16">
      <!-- 0.825 -->
      <g transform="translate(54.371875 162.685737) scale(0.1 -0.1)">
       <use xlink:href="#DejaVuSans-30"/>
       <use xlink:href="#DejaVuSans-2e" x="63.623047"/>
       <use xlink:href="#DejaVuSans-38" x="95.410156"/>
       <use xlink:href="#DejaVuSans-32" x="159.033203"/>
       <use xlink:href="#DejaVuSans-35" x="222.65625"/>
      </g>
     </g>
    </g>
    <g id="ytick_7">
     <g id="line2d_31">
      <path d="M 90 115.917917 
L 648 115.917917 
" clip-path="url(#pd4436f37b3)" style="fill: none; stroke: #b0b0b0; stroke-width: 0.8; stroke-linecap: square"/>
     </g>
     <g id="line2d_32">
      <g>
       <use xlink:href="#mf6637f1c5e" x="90" y="115.917917" style="stroke: #000000; stroke-width: 0.8"/>
      </g>
     </g>
     <g id="text_17">
      <!-- 0.850 -->
      <g transform="translate(54.371875 119.717135) scale(0.1 -0.1)">
       <use xlink:href="#DejaVuSans-30"/>
       <use xlink:href="#DejaVuSans-2e" x="63.623047"/>
       <use xlink:href="#DejaVuSans-38" x="95.410156"/>
       <use xlink:href="#DejaVuSans-35" x="159.033203"/>
       <use xlink:href="#DejaVuSans-30" x="222.65625"/>
      </g>
     </g>
    </g>
    <g id="ytick_8">
     <g id="line2d_33">
      <path d="M 90 72.949315 
L 648 72.949315 
" clip-path="url(#pd4436f37b3)" style="fill: none; stroke: #b0b0b0; stroke-width: 0.8; stroke-linecap: square"/>
     </g>
     <g id="line2d_34">
      <g>
       <use xlink:href="#mf6637f1c5e" x="90" y="72.949315" style="stroke: #000000; stroke-width: 0.8"/>
      </g>
     </g>
     <g id="text_18">
      <!-- 0.875 -->
      <g transform="translate(54.371875 76.748533) scale(0.1 -0.1)">
       <use xlink:href="#DejaVuSans-30"/>
       <use xlink:href="#DejaVuSans-2e" x="63.623047"/>
       <use xlink:href="#DejaVuSans-38" x="95.410156"/>
       <use xlink:href="#DejaVuSans-37" x="159.033203"/>
       <use xlink:href="#DejaVuSans-35" x="222.65625"/>
      </g>
     </g>
    </g>
    <g id="text_19">
     <!-- Accuracy -->
     <g transform="translate(48.292187 240.988125) rotate(-90) scale(0.1 -0.1)">
      <defs>
       <path id="DejaVuSans-41" d="M 2188 4044 
L 1331 1722 
L 3047 1722 
L 2188 4044 
z
M 1831 4666 
L 2547 4666 
L 4325 0 
L 3669 0 
L 3244 1197 
L 1141 1197 
L 716 0 
L 50 0 
L 1831 4666 
z
" transform="scale(0.015625)"/>
       <path id="DejaVuSans-63" d="M 3122 3366 
L 3122 2828 
Q 2878 2963 2633 3030 
Q 2388 3097 2138 3097 
Q 1578 3097 1268 2742 
Q 959 2388 959 1747 
Q 959 1106 1268 751 
Q 1578 397 2138 397 
Q 2388 397 2633 464 
Q 2878 531 3122 666 
L 3122 134 
Q 2881 22 2623 -34 
Q 2366 -91 2075 -91 
Q 1284 -91 818 406 
Q 353 903 353 1747 
Q 353 2603 823 3093 
Q 1294 3584 2113 3584 
Q 2378 3584 2631 3529 
Q 2884 3475 3122 3366 
z
" transform="scale(0.015625)"/>
       <path id="DejaVuSans-79" d="M 2059 -325 
Q 1816 -950 1584 -1140 
Q 1353 -1331 966 -1331 
L 506 -1331 
L 506 -850 
L 844 -850 
Q 1081 -850 1212 -737 
Q 1344 -625 1503 -206 
L 1606 56 
L 191 3500 
L 800 3500 
L 1894 763 
L 2988 3500 
L 3597 3500 
L 2059 -325 
z
" transform="scale(0.015625)"/>
      </defs>
      <use xlink:href="#DejaVuSans-41"/>
      <use xlink:href="#DejaVuSans-63" x="66.658203"/>
      <use xlink:href="#DejaVuSans-63" x="121.638672"/>
      <use xlink:href="#DejaVuSans-75" x="176.619141"/>
      <use xlink:href="#DejaVuSans-72" x="239.998047"/>
      <use xlink:href="#DejaVuSans-61" x="281.111328"/>
      <use xlink:href="#DejaVuSans-63" x="342.390625"/>
      <use xlink:href="#DejaVuSans-79" x="397.371094"/>
     </g>
    </g>
   </g>
   <g id="line2d_35">
    <path d="M 115.363636 256.339804 
L 121.951594 341.534035 
L 128.539551 348.468449 
L 135.127509 294.974397 
L 141.715466 252.377281 
L 148.303424 227.611516 
L 154.891381 191.948815 
L 161.479339 167.18305 
L 168.067296 164.211158 
L 174.655254 164.211158 
L 181.243211 135.482871 
L 187.831169 145.389177 
L 194.419126 134.49224 
L 201.007084 129.539087 
L 207.595041 138.454763 
L 214.182999 123.595304 
L 220.770956 133.50161 
L 227.358914 134.49224 
L 233.946871 132.510979 
L 240.534829 108.735845 
L 247.122786 117.65152 
L 253.710744 122.604673 
L 260.298701 109.726475 
L 266.886659 111.707737 
L 273.474616 121.614043 
L 280.062574 115.670259 
L 286.650531 112.698367 
L 293.238489 108.735845 
L 299.826446 112.698367 
L 306.414404 118.642151 
L 313.002361 120.623412 
L 319.590319 106.754584 
L 326.178276 109.726475 
L 332.766234 107.745214 
L 339.354191 115.670259 
L 345.942149 112.698367 
L 352.530106 116.66089 
L 359.118064 113.688998 
L 365.706021 113.688998 
L 372.293979 113.688998 
L 378.881936 104.773322 
L 385.469894 110.717106 
L 392.057851 116.66089 
L 398.645809 113.688998 
L 405.233766 123.595304 
L 411.821724 111.707737 
L 418.409681 110.717106 
L 424.997639 104.773322 
L 431.585596 108.735845 
L 438.173554 106.754584 
L 444.761511 96.848278 
L 451.349469 97.838908 
L 457.937426 107.745214 
L 464.525384 84.960711 
L 471.113341 97.838908 
L 477.701299 92.885755 
L 484.289256 90.904494 
L 490.877214 101.801431 
L 497.465171 96.848278 
L 504.053129 106.754584 
L 510.641086 101.801431 
L 517.229044 82.979449 
L 523.817001 104.773322 
L 530.404959 96.848278 
L 536.992916 105.763953 
L 543.580874 104.773322 
L 550.168831 99.820169 
L 556.756789 98.829539 
L 563.344746 95.857647 
L 569.932704 99.820169 
L 576.520661 107.745214 
L 583.108619 99.820169 
L 589.696576 92.885755 
L 596.284534 87.932602 
L 602.872491 96.848278 
L 609.460449 114.679628 
L 616.048406 116.908547 
L 622.636364 123.925514 
" clip-path="url(#pd4436f37b3)" style="fill: none; stroke: #1f77b4; stroke-width: 1.5; stroke-linecap: square"/>
    <defs>
     <path id="ma573829c7c" d="M 0 3 
C 0.795609 3 1.55874 2.683901 2.12132 2.12132 
C 2.683901 1.55874 3 0.795609 3 0 
C 3 -0.795609 2.683901 -1.55874 2.12132 -2.12132 
C 1.55874 -2.683901 0.795609 -3 0 -3 
C -0.795609 -3 -1.55874 -2.683901 -2.12132 -2.12132 
C -2.683901 -1.55874 -3 -0.795609 -3 0 
C -3 0.795609 -2.683901 1.55874 -2.12132 2.12132 
C -1.55874 2.683901 -0.795609 3 0 3 
z
" style="stroke: #1f77b4"/>
    </defs>
    <g clip-path="url(#pd4436f37b3)">
     <use xlink:href="#ma573829c7c" x="115.363636" y="256.339804" style="fill: #1f77b4; stroke: #1f77b4"/>
     <use xlink:href="#ma573829c7c" x="121.951594" y="341.534035" style="fill: #1f77b4; stroke: #1f77b4"/>
     <use xlink:href="#ma573829c7c" x="128.539551" y="348.468449" style="fill: #1f77b4; stroke: #1f77b4"/>
     <use xlink:href="#ma573829c7c" x="135.127509" y="294.974397" style="fill: #1f77b4; stroke: #1f77b4"/>
     <use xlink:href="#ma573829c7c" x="141.715466" y="252.377281" style="fill: #1f77b4; stroke: #1f77b4"/>
     <use xlink:href="#ma573829c7c" x="148.303424" y="227.611516" style="fill: #1f77b4; stroke: #1f77b4"/>
     <use xlink:href="#ma573829c7c" x="154.891381" y="191.948815" style="fill: #1f77b4; stroke: #1f77b4"/>
     <use xlink:href="#ma573829c7c" x="161.479339" y="167.18305" style="fill: #1f77b4; stroke: #1f77b4"/>
     <use xlink:href="#ma573829c7c" x="168.067296" y="164.211158" style="fill: #1f77b4; stroke: #1f77b4"/>
     <use xlink:href="#ma573829c7c" x="174.655254" y="164.211158" style="fill: #1f77b4; stroke: #1f77b4"/>
     <use xlink:href="#ma573829c7c" x="181.243211" y="135.482871" style="fill: #1f77b4; stroke: #1f77b4"/>
     <use xlink:href="#ma573829c7c" x="187.831169" y="145.389177" style="fill: #1f77b4; stroke: #1f77b4"/>
     <use xlink:href="#ma573829c7c" x="194.419126" y="134.49224" style="fill: #1f77b4; stroke: #1f77b4"/>
     <use xlink:href="#ma573829c7c" x="201.007084" y="129.539087" style="fill: #1f77b4; stroke: #1f77b4"/>
     <use xlink:href="#ma573829c7c" x="207.595041" y="138.454763" style="fill: #1f77b4; stroke: #1f77b4"/>
     <use xlink:href="#ma573829c7c" x="214.182999" y="123.595304" style="fill: #1f77b4; stroke: #1f77b4"/>
     <use xlink:href="#ma573829c7c" x="220.770956" y="133.50161" style="fill: #1f77b4; stroke: #1f77b4"/>
     <use xlink:href="#ma573829c7c" x="227.358914" y="134.49224" style="fill: #1f77b4; stroke: #1f77b4"/>
     <use xlink:href="#ma573829c7c" x="233.946871" y="132.510979" style="fill: #1f77b4; stroke: #1f77b4"/>
     <use xlink:href="#ma573829c7c" x="240.534829" y="108.735845" style="fill: #1f77b4; stroke: #1f77b4"/>
     <use xlink:href="#ma573829c7c" x="247.122786" y="117.65152" style="fill: #1f77b4; stroke: #1f77b4"/>
     <use xlink:href="#ma573829c7c" x="253.710744" y="122.604673" style="fill: #1f77b4; stroke: #1f77b4"/>
     <use xlink:href="#ma573829c7c" x="260.298701" y="109.726475" style="fill: #1f77b4; stroke: #1f77b4"/>
     <use xlink:href="#ma573829c7c" x="266.886659" y="111.707737" style="fill: #1f77b4; stroke: #1f77b4"/>
     <use xlink:href="#ma573829c7c" x="273.474616" y="121.614043" style="fill: #1f77b4; stroke: #1f77b4"/>
     <use xlink:href="#ma573829c7c" x="280.062574" y="115.670259" style="fill: #1f77b4; stroke: #1f77b4"/>
     <use xlink:href="#ma573829c7c" x="286.650531" y="112.698367" style="fill: #1f77b4; stroke: #1f77b4"/>
     <use xlink:href="#ma573829c7c" x="293.238489" y="108.735845" style="fill: #1f77b4; stroke: #1f77b4"/>
     <use xlink:href="#ma573829c7c" x="299.826446" y="112.698367" style="fill: #1f77b4; stroke: #1f77b4"/>
     <use xlink:href="#ma573829c7c" x="306.414404" y="118.642151" style="fill: #1f77b4; stroke: #1f77b4"/>
     <use xlink:href="#ma573829c7c" x="313.002361" y="120.623412" style="fill: #1f77b4; stroke: #1f77b4"/>
     <use xlink:href="#ma573829c7c" x="319.590319" y="106.754584" style="fill: #1f77b4; stroke: #1f77b4"/>
     <use xlink:href="#ma573829c7c" x="326.178276" y="109.726475" style="fill: #1f77b4; stroke: #1f77b4"/>
     <use xlink:href="#ma573829c7c" x="332.766234" y="107.745214" style="fill: #1f77b4; stroke: #1f77b4"/>
     <use xlink:href="#ma573829c7c" x="339.354191" y="115.670259" style="fill: #1f77b4; stroke: #1f77b4"/>
     <use xlink:href="#ma573829c7c" x="345.942149" y="112.698367" style="fill: #1f77b4; stroke: #1f77b4"/>
     <use xlink:href="#ma573829c7c" x="352.530106" y="116.66089" style="fill: #1f77b4; stroke: #1f77b4"/>
     <use xlink:href="#ma573829c7c" x="359.118064" y="113.688998" style="fill: #1f77b4; stroke: #1f77b4"/>
     <use xlink:href="#ma573829c7c" x="365.706021" y="113.688998" style="fill: #1f77b4; stroke: #1f77b4"/>
     <use xlink:href="#ma573829c7c" x="372.293979" y="113.688998" style="fill: #1f77b4; stroke: #1f77b4"/>
     <use xlink:href="#ma573829c7c" x="378.881936" y="104.773322" style="fill: #1f77b4; stroke: #1f77b4"/>
     <use xlink:href="#ma573829c7c" x="385.469894" y="110.717106" style="fill: #1f77b4; stroke: #1f77b4"/>
     <use xlink:href="#ma573829c7c" x="392.057851" y="116.66089" style="fill: #1f77b4; stroke: #1f77b4"/>
     <use xlink:href="#ma573829c7c" x="398.645809" y="113.688998" style="fill: #1f77b4; stroke: #1f77b4"/>
     <use xlink:href="#ma573829c7c" x="405.233766" y="123.595304" style="fill: #1f77b4; stroke: #1f77b4"/>
     <use xlink:href="#ma573829c7c" x="411.821724" y="111.707737" style="fill: #1f77b4; stroke: #1f77b4"/>
     <use xlink:href="#ma573829c7c" x="418.409681" y="110.717106" style="fill: #1f77b4; stroke: #1f77b4"/>
     <use xlink:href="#ma573829c7c" x="424.997639" y="104.773322" style="fill: #1f77b4; stroke: #1f77b4"/>
     <use xlink:href="#ma573829c7c" x="431.585596" y="108.735845" style="fill: #1f77b4; stroke: #1f77b4"/>
     <use xlink:href="#ma573829c7c" x="438.173554" y="106.754584" style="fill: #1f77b4; stroke: #1f77b4"/>
     <use xlink:href="#ma573829c7c" x="444.761511" y="96.848278" style="fill: #1f77b4; stroke: #1f77b4"/>
     <use xlink:href="#ma573829c7c" x="451.349469" y="97.838908" style="fill: #1f77b4; stroke: #1f77b4"/>
     <use xlink:href="#ma573829c7c" x="457.937426" y="107.745214" style="fill: #1f77b4; stroke: #1f77b4"/>
     <use xlink:href="#ma573829c7c" x="464.525384" y="84.960711" style="fill: #1f77b4; stroke: #1f77b4"/>
     <use xlink:href="#ma573829c7c" x="471.113341" y="97.838908" style="fill: #1f77b4; stroke: #1f77b4"/>
     <use xlink:href="#ma573829c7c" x="477.701299" y="92.885755" style="fill: #1f77b4; stroke: #1f77b4"/>
     <use xlink:href="#ma573829c7c" x="484.289256" y="90.904494" style="fill: #1f77b4; stroke: #1f77b4"/>
     <use xlink:href="#ma573829c7c" x="490.877214" y="101.801431" style="fill: #1f77b4; stroke: #1f77b4"/>
     <use xlink:href="#ma573829c7c" x="497.465171" y="96.848278" style="fill: #1f77b4; stroke: #1f77b4"/>
     <use xlink:href="#ma573829c7c" x="504.053129" y="106.754584" style="fill: #1f77b4; stroke: #1f77b4"/>
     <use xlink:href="#ma573829c7c" x="510.641086" y="101.801431" style="fill: #1f77b4; stroke: #1f77b4"/>
     <use xlink:href="#ma573829c7c" x="517.229044" y="82.979449" style="fill: #1f77b4; stroke: #1f77b4"/>
     <use xlink:href="#ma573829c7c" x="523.817001" y="104.773322" style="fill: #1f77b4; stroke: #1f77b4"/>
     <use xlink:href="#ma573829c7c" x="530.404959" y="96.848278" style="fill: #1f77b4; stroke: #1f77b4"/>
     <use xlink:href="#ma573829c7c" x="536.992916" y="105.763953" style="fill: #1f77b4; stroke: #1f77b4"/>
     <use xlink:href="#ma573829c7c" x="543.580874" y="104.773322" style="fill: #1f77b4; stroke: #1f77b4"/>
     <use xlink:href="#ma573829c7c" x="550.168831" y="99.820169" style="fill: #1f77b4; stroke: #1f77b4"/>
     <use xlink:href="#ma573829c7c" x="556.756789" y="98.829539" style="fill: #1f77b4; stroke: #1f77b4"/>
     <use xlink:href="#ma573829c7c" x="563.344746" y="95.857647" style="fill: #1f77b4; stroke: #1f77b4"/>
     <use xlink:href="#ma573829c7c" x="569.932704" y="99.820169" style="fill: #1f77b4; stroke: #1f77b4"/>
     <use xlink:href="#ma573829c7c" x="576.520661" y="107.745214" style="fill: #1f77b4; stroke: #1f77b4"/>
     <use xlink:href="#ma573829c7c" x="583.108619" y="99.820169" style="fill: #1f77b4; stroke: #1f77b4"/>
     <use xlink:href="#ma573829c7c" x="589.696576" y="92.885755" style="fill: #1f77b4; stroke: #1f77b4"/>
     <use xlink:href="#ma573829c7c" x="596.284534" y="87.932602" style="fill: #1f77b4; stroke: #1f77b4"/>
     <use xlink:href="#ma573829c7c" x="602.872491" y="96.848278" style="fill: #1f77b4; stroke: #1f77b4"/>
     <use xlink:href="#ma573829c7c" x="609.460449" y="114.679628" style="fill: #1f77b4; stroke: #1f77b4"/>
     <use xlink:href="#ma573829c7c" x="616.048406" y="116.908547" style="fill: #1f77b4; stroke: #1f77b4"/>
     <use xlink:href="#ma573829c7c" x="622.636364" y="123.925514" style="fill: #1f77b4; stroke: #1f77b4"/>
    </g>
   </g>
   <g id="line2d_36">
    <path d="M 115.363636 256.339804 
L 121.951594 298.936919 
L 128.539551 315.447429 
L 135.127509 310.329171 
L 141.715466 298.738793 
L 148.303424 292.993136 
L 154.891381 263.076092 
L 161.479339 226.819012 
L 168.067296 200.666364 
L 174.655254 183.033139 
L 181.243211 164.60741 
L 187.831169 155.295483 
L 194.419126 148.757321 
L 201.007084 141.822907 
L 207.595041 136.671628 
L 214.182999 134.294114 
L 220.770956 131.916601 
L 227.358914 131.916601 
L 233.946871 132.510979 
L 240.534829 126.567196 
L 247.122786 125.378439 
L 253.710744 123.199052 
L 260.298701 118.245899 
L 266.886659 114.08525 
L 273.474616 116.66089 
L 280.062574 116.264637 
L 286.650531 114.283376 
L 293.238489 114.08525 
L 299.826446 114.283376 
L 306.414404 113.688998 
L 313.002361 114.679628 
L 319.590319 113.490872 
L 326.178276 113.688998 
L 332.766234 112.698367 
L 339.354191 112.103989 
L 345.942149 110.51898 
L 352.530106 112.500241 
L 359.118064 113.292746 
L 365.706021 114.481502 
L 372.293979 114.08525 
L 378.881936 112.500241 
L 385.469894 111.311484 
L 392.057851 111.905863 
L 398.645809 111.905863 
L 405.233766 113.887124 
L 411.821724 115.274007 
L 418.409681 115.274007 
L 424.997639 112.896493 
L 431.585596 111.905863 
L 438.173554 108.537719 
L 444.761511 105.565827 
L 451.349469 102.990187 
L 457.937426 103.584566 
L 464.525384 98.829539 
L 471.113341 97.046404 
L 477.701299 96.253899 
L 484.289256 94.867016 
L 490.877214 93.67826 
L 497.465171 96.055773 
L 504.053129 97.838908 
L 510.641086 99.622043 
L 517.229044 98.037034 
L 523.817001 98.631413 
L 530.404959 98.631413 
L 536.992916 98.433287 
L 543.580874 99.027665 
L 550.168831 102.395809 
L 556.756789 101.207052 
L 563.344746 101.008926 
L 569.932704 99.820169 
L 576.520661 100.414548 
L 583.108619 100.414548 
L 589.696576 99.225791 
L 596.284534 97.640782 
L 602.872491 97.046404 
L 609.460449 98.433287 
L 616.048406 101.850962 
L 622.636364 108.058914 
" clip-path="url(#pd4436f37b3)" style="fill: none; stroke: #ff7f0e; stroke-width: 1.5; stroke-linecap: square"/>
   </g>
   <g id="patch_3">
    <path d="M 90 384.48 
L 90 51.84 
" style="fill: none; stroke: #000000; stroke-width: 0.8; stroke-linejoin: miter; stroke-linecap: square"/>
   </g>
   <g id="patch_4">
    <path d="M 648 384.48 
L 648 51.84 
" style="fill: none; stroke: #000000; stroke-width: 0.8; stroke-linejoin: miter; stroke-linecap: square"/>
   </g>
   <g id="patch_5">
    <path d="M 90 384.48 
L 648 384.48 
" style="fill: none; stroke: #000000; stroke-width: 0.8; stroke-linejoin: miter; stroke-linecap: square"/>
   </g>
   <g id="patch_6">
    <path d="M 90 51.84 
L 648 51.84 
" style="fill: none; stroke: #000000; stroke-width: 0.8; stroke-linejoin: miter; stroke-linecap: square"/>
   </g>
   <g id="text_20">
    <!-- Accuracy vs. Number of Features: RandomForest -->
    <g transform="translate(222.542812 45.84) scale(0.12 -0.12)">
     <defs>
      <path id="DejaVuSans-76" d="M 191 3500 
L 800 3500 
L 1894 563 
L 2988 3500 
L 3597 3500 
L 2284 0 
L 1503 0 
L 191 3500 
z
" transform="scale(0.015625)"/>
      <path id="DejaVuSans-3a" d="M 750 794 
L 1409 794 
L 1409 0 
L 750 0 
L 750 794 
z
M 750 3309 
L 1409 3309 
L 1409 2516 
L 750 2516 
L 750 3309 
z
" transform="scale(0.015625)"/>
      <path id="DejaVuSans-52" d="M 2841 2188 
Q 3044 2119 3236 1894 
Q 3428 1669 3622 1275 
L 4263 0 
L 3584 0 
L 2988 1197 
Q 2756 1666 2539 1819 
Q 2322 1972 1947 1972 
L 1259 1972 
L 1259 0 
L 628 0 
L 628 4666 
L 2053 4666 
Q 2853 4666 3247 4331 
Q 3641 3997 3641 3322 
Q 3641 2881 3436 2590 
Q 3231 2300 2841 2188 
z
M 1259 4147 
L 1259 2491 
L 2053 2491 
Q 2509 2491 2742 2702 
Q 2975 2913 2975 3322 
Q 2975 3731 2742 3939 
Q 2509 4147 2053 4147 
L 1259 4147 
z
" transform="scale(0.015625)"/>
      <path id="DejaVuSans-6e" d="M 3513 2113 
L 3513 0 
L 2938 0 
L 2938 2094 
Q 2938 2591 2744 2837 
Q 2550 3084 2163 3084 
Q 1697 3084 1428 2787 
Q 1159 2491 1159 1978 
L 1159 0 
L 581 0 
L 581 3500 
L 1159 3500 
L 1159 2956 
Q 1366 3272 1645 3428 
Q 1925 3584 2291 3584 
Q 2894 3584 3203 3211 
Q 3513 2838 3513 2113 
z
" transform="scale(0.015625)"/>
      <path id="DejaVuSans-64" d="M 2906 2969 
L 2906 4863 
L 3481 4863 
L 3481 0 
L 2906 0 
L 2906 525 
Q 2725 213 2448 61 
Q 2172 -91 1784 -91 
Q 1150 -91 751 415 
Q 353 922 353 1747 
Q 353 2572 751 3078 
Q 1150 3584 1784 3584 
Q 2172 3584 2448 3432 
Q 2725 3281 2906 2969 
z
M 947 1747 
Q 947 1113 1208 752 
Q 1469 391 1925 391 
Q 2381 391 2643 752 
Q 2906 1113 2906 1747 
Q 2906 2381 2643 2742 
Q 2381 3103 1925 3103 
Q 1469 3103 1208 2742 
Q 947 2381 947 1747 
z
" transform="scale(0.015625)"/>
     </defs>
     <use xlink:href="#DejaVuSans-41"/>
     <use xlink:href="#DejaVuSans-63" x="66.658203"/>
     <use xlink:href="#DejaVuSans-63" x="121.638672"/>
     <use xlink:href="#DejaVuSans-75" x="176.619141"/>
     <use xlink:href="#DejaVuSans-72" x="239.998047"/>
     <use xlink:href="#DejaVuSans-61" x="281.111328"/>
     <use xlink:href="#DejaVuSans-63" x="342.390625"/>
     <use xlink:href="#DejaVuSans-79" x="397.371094"/>
     <use xlink:href="#DejaVuSans-20" x="456.550781"/>
     <use xlink:href="#DejaVuSans-76" x="488.337891"/>
     <use xlink:href="#DejaVuSans-73" x="547.517578"/>
     <use xlink:href="#DejaVuSans-2e" x="599.617188"/>
     <use xlink:href="#DejaVuSans-20" x="631.404297"/>
     <use xlink:href="#DejaVuSans-4e" x="663.191406"/>
     <use xlink:href="#DejaVuSans-75" x="737.996094"/>
     <use xlink:href="#DejaVuSans-6d" x="801.375"/>
     <use xlink:href="#DejaVuSans-62" x="898.787109"/>
     <use xlink:href="#DejaVuSans-65" x="962.263672"/>
     <use xlink:href="#DejaVuSans-72" x="1023.787109"/>
     <use xlink:href="#DejaVuSans-20" x="1064.900391"/>
     <use xlink:href="#DejaVuSans-6f" x="1096.6875"/>
     <use xlink:href="#DejaVuSans-66" x="1157.869141"/>
     <use xlink:href="#DejaVuSans-20" x="1193.074219"/>
     <use xlink:href="#DejaVuSans-46" x="1224.861328"/>
     <use xlink:href="#DejaVuSans-65" x="1276.880859"/>
     <use xlink:href="#DejaVuSans-61" x="1338.404297"/>
     <use xlink:href="#DejaVuSans-74" x="1399.683594"/>
     <use xlink:href="#DejaVuSans-75" x="1438.892578"/>
     <use xlink:href="#DejaVuSans-72" x="1502.271484"/>
     <use xlink:href="#DejaVuSans-65" x="1541.134766"/>
     <use xlink:href="#DejaVuSans-73" x="1602.658203"/>
     <use xlink:href="#DejaVuSans-3a" x="1654.757812"/>
     <use xlink:href="#DejaVuSans-20" x="1688.449219"/>
     <use xlink:href="#DejaVuSans-52" x="1720.236328"/>
     <use xlink:href="#DejaVuSans-61" x="1787.46875"/>
     <use xlink:href="#DejaVuSans-6e" x="1848.748047"/>
     <use xlink:href="#DejaVuSans-64" x="1912.126953"/>
     <use xlink:href="#DejaVuSans-6f" x="1975.603516"/>
     <use xlink:href="#DejaVuSans-6d" x="2036.785156"/>
     <use xlink:href="#DejaVuSans-46" x="2134.197266"/>
     <use xlink:href="#DejaVuSans-6f" x="2188.091797"/>
     <use xlink:href="#DejaVuSans-72" x="2249.273438"/>
     <use xlink:href="#DejaVuSans-65" x="2288.136719"/>
     <use xlink:href="#DejaVuSans-73" x="2349.660156"/>
     <use xlink:href="#DejaVuSans-74" x="2401.759766"/>
    </g>
   </g>
   <g id="legend_1">
    <g id="patch_7">
     <path d="M 509.079687 379.48 
L 641 379.48 
Q 643 379.48 643 377.48 
L 643 334.445625 
Q 643 332.445625 641 332.445625 
L 509.079687 332.445625 
Q 507.079687 332.445625 507.079687 334.445625 
L 507.079687 377.48 
Q 507.079687 379.48 509.079687 379.48 
z
" style="fill: #ffffff; opacity: 0.8; stroke: #cccccc; stroke-linejoin: miter"/>
    </g>
    <g id="line2d_37">
     <path d="M 511.079687 340.544062 
L 521.079687 340.544062 
L 531.079687 340.544062 
" style="fill: none; stroke: #1f77b4; stroke-width: 1.5; stroke-linecap: square"/>
     <g>
      <use xlink:href="#ma573829c7c" x="521.079687" y="340.544062" style="fill: #1f77b4; stroke: #1f77b4"/>
     </g>
    </g>
    <g id="text_21">
     <!-- Original Accuracy -->
     <g transform="translate(539.079687 344.044062) scale(0.1 -0.1)">
      <defs>
       <path id="DejaVuSans-4f" d="M 2522 4238 
Q 1834 4238 1429 3725 
Q 1025 3213 1025 2328 
Q 1025 1447 1429 934 
Q 1834 422 2522 422 
Q 3209 422 3611 934 
Q 4013 1447 4013 2328 
Q 4013 3213 3611 3725 
Q 3209 4238 2522 4238 
z
M 2522 4750 
Q 3503 4750 4090 4092 
Q 4678 3434 4678 2328 
Q 4678 1225 4090 567 
Q 3503 -91 2522 -91 
Q 1538 -91 948 565 
Q 359 1222 359 2328 
Q 359 3434 948 4092 
Q 1538 4750 2522 4750 
z
" transform="scale(0.015625)"/>
       <path id="DejaVuSans-69" d="M 603 3500 
L 1178 3500 
L 1178 0 
L 603 0 
L 603 3500 
z
M 603 4863 
L 1178 4863 
L 1178 4134 
L 603 4134 
L 603 4863 
z
" transform="scale(0.015625)"/>
       <path id="DejaVuSans-67" d="M 2906 1791 
Q 2906 2416 2648 2759 
Q 2391 3103 1925 3103 
Q 1463 3103 1205 2759 
Q 947 2416 947 1791 
Q 947 1169 1205 825 
Q 1463 481 1925 481 
Q 2391 481 2648 825 
Q 2906 1169 2906 1791 
z
M 3481 434 
Q 3481 -459 3084 -895 
Q 2688 -1331 1869 -1331 
Q 1566 -1331 1297 -1286 
Q 1028 -1241 775 -1147 
L 775 -588 
Q 1028 -725 1275 -790 
Q 1522 -856 1778 -856 
Q 2344 -856 2625 -561 
Q 2906 -266 2906 331 
L 2906 616 
Q 2728 306 2450 153 
Q 2172 0 1784 0 
Q 1141 0 747 490 
Q 353 981 353 1791 
Q 353 2603 747 3093 
Q 1141 3584 1784 3584 
Q 2172 3584 2450 3431 
Q 2728 3278 2906 2969 
L 2906 3500 
L 3481 3500 
L 3481 434 
z
" transform="scale(0.015625)"/>
       <path id="DejaVuSans-6c" d="M 603 4863 
L 1178 4863 
L 1178 0 
L 603 0 
L 603 4863 
z
" transform="scale(0.015625)"/>
      </defs>
      <use xlink:href="#DejaVuSans-4f"/>
      <use xlink:href="#DejaVuSans-72" x="78.710938"/>
      <use xlink:href="#DejaVuSans-69" x="119.824219"/>
      <use xlink:href="#DejaVuSans-67" x="147.607422"/>
      <use xlink:href="#DejaVuSans-69" x="211.083984"/>
      <use xlink:href="#DejaVuSans-6e" x="238.867188"/>
      <use xlink:href="#DejaVuSans-61" x="302.246094"/>
      <use xlink:href="#DejaVuSans-6c" x="363.525391"/>
      <use xlink:href="#DejaVuSans-20" x="391.308594"/>
      <use xlink:href="#DejaVuSans-41" x="423.095703"/>
      <use xlink:href="#DejaVuSans-63" x="489.753906"/>
      <use xlink:href="#DejaVuSans-63" x="544.734375"/>
      <use xlink:href="#DejaVuSans-75" x="599.714844"/>
      <use xlink:href="#DejaVuSans-72" x="663.09375"/>
      <use xlink:href="#DejaVuSans-61" x="704.207031"/>
      <use xlink:href="#DejaVuSans-63" x="765.486328"/>
      <use xlink:href="#DejaVuSans-79" x="820.466797"/>
     </g>
    </g>
    <g id="line2d_38">
     <path d="M 511.079687 355.222188 
L 521.079687 355.222188 
L 531.079687 355.222188 
" style="fill: none; stroke: #ff7f0e; stroke-width: 1.5; stroke-linecap: square"/>
    </g>
    <g id="text_22">
     <!-- Smoothed Accuracy -->
     <g transform="translate(539.079687 358.722188) scale(0.1 -0.1)">
      <defs>
       <path id="DejaVuSans-53" d="M 3425 4513 
L 3425 3897 
Q 3066 4069 2747 4153 
Q 2428 4238 2131 4238 
Q 1616 4238 1336 4038 
Q 1056 3838 1056 3469 
Q 1056 3159 1242 3001 
Q 1428 2844 1947 2747 
L 2328 2669 
Q 3034 2534 3370 2195 
Q 3706 1856 3706 1288 
Q 3706 609 3251 259 
Q 2797 -91 1919 -91 
Q 1588 -91 1214 -16 
Q 841 59 441 206 
L 441 856 
Q 825 641 1194 531 
Q 1563 422 1919 422 
Q 2459 422 2753 634 
Q 3047 847 3047 1241 
Q 3047 1584 2836 1778 
Q 2625 1972 2144 2069 
L 1759 2144 
Q 1053 2284 737 2584 
Q 422 2884 422 3419 
Q 422 4038 858 4394 
Q 1294 4750 2059 4750 
Q 2388 4750 2728 4690 
Q 3069 4631 3425 4513 
z
" transform="scale(0.015625)"/>
       <path id="DejaVuSans-68" d="M 3513 2113 
L 3513 0 
L 2938 0 
L 2938 2094 
Q 2938 2591 2744 2837 
Q 2550 3084 2163 3084 
Q 1697 3084 1428 2787 
Q 1159 2491 1159 1978 
L 1159 0 
L 581 0 
L 581 4863 
L 1159 4863 
L 1159 2956 
Q 1366 3272 1645 3428 
Q 1925 3584 2291 3584 
Q 2894 3584 3203 3211 
Q 3513 2838 3513 2113 
z
" transform="scale(0.015625)"/>
      </defs>
      <use xlink:href="#DejaVuSans-53"/>
      <use xlink:href="#DejaVuSans-6d" x="63.476562"/>
      <use xlink:href="#DejaVuSans-6f" x="160.888672"/>
      <use xlink:href="#DejaVuSans-6f" x="222.070312"/>
      <use xlink:href="#DejaVuSans-74" x="283.251953"/>
      <use xlink:href="#DejaVuSans-68" x="322.460938"/>
      <use xlink:href="#DejaVuSans-65" x="385.839844"/>
      <use xlink:href="#DejaVuSans-64" x="447.363281"/>
      <use xlink:href="#DejaVuSans-20" x="510.839844"/>
      <use xlink:href="#DejaVuSans-41" x="542.626953"/>
      <use xlink:href="#DejaVuSans-63" x="609.285156"/>
      <use xlink:href="#DejaVuSans-63" x="664.265625"/>
      <use xlink:href="#DejaVuSans-75" x="719.246094"/>
      <use xlink:href="#DejaVuSans-72" x="782.625"/>
      <use xlink:href="#DejaVuSans-61" x="823.738281"/>
      <use xlink:href="#DejaVuSans-63" x="885.017578"/>
      <use xlink:href="#DejaVuSans-79" x="939.998047"/>
     </g>
    </g>
    <g id="patch_8">
     <path d="M 511.079687 373.400312 
L 531.079687 373.400312 
L 531.079687 366.400312 
L 511.079687 366.400312 
z
" style="fill: #0000ff; fill-opacity: 0.2; stroke: #0000ff; stroke-opacity: 0.2; stroke-linejoin: miter"/>
    </g>
    <g id="text_23">
     <!-- SEM -->
     <g transform="translate(539.079687 373.400312) scale(0.1 -0.1)">
      <defs>
       <path id="DejaVuSans-45" d="M 628 4666 
L 3578 4666 
L 3578 4134 
L 1259 4134 
L 1259 2753 
L 3481 2753 
L 3481 2222 
L 1259 2222 
L 1259 531 
L 3634 531 
L 3634 0 
L 628 0 
L 628 4666 
z
" transform="scale(0.015625)"/>
       <path id="DejaVuSans-4d" d="M 628 4666 
L 1569 4666 
L 2759 1491 
L 3956 4666 
L 4897 4666 
L 4897 0 
L 4281 0 
L 4281 4097 
L 3078 897 
L 2444 897 
L 1241 4097 
L 1241 0 
L 628 0 
L 628 4666 
z
" transform="scale(0.015625)"/>
      </defs>
      <use xlink:href="#DejaVuSans-53"/>
      <use xlink:href="#DejaVuSans-45" x="63.476562"/>
      <use xlink:href="#DejaVuSans-4d" x="126.660156"/>
     </g>
    </g>
   </g>
  </g>
 </g>
 <defs>
  <clipPath id="pd4436f37b3">
   <rect x="90" y="51.84" width="558" height="332.64"/>
  </clipPath>
 </defs>
</svg>
